<svg width="1643" height="242" viewBox="0 0 1643 242" fill="none" xmlns="http://www.w3.org/2000/svg">
<path d="M377.8 182.8C364.6 182.8 353.267 180.467 343.8 175.8C334.333 171.133 326.6 165.067 320.6 157.6C314.733 150.133 310.4 142 307.6 133.2C304.8 124.4 303.4 115.933 303.4 107.8V103.4C303.4 94.3333 304.8 85.4 307.6 76.6C310.533 67.8 315 59.8 321 52.6C327 45.4 334.6 39.6667 343.8 35.4C353.133 31 364.133 28.8 376.8 28.8C390 28.8 401.467 31.2 411.2 36C421.067 40.6667 428.933 47.3333 434.8 56C440.667 64.5333 444.2 74.5333 445.4 86H416.8C415.733 79.3333 413.333 73.7333 409.6 69.2C406 64.5333 401.4 61.0667 395.8 58.8C390.2 56.4 383.867 55.2 376.8 55.2C369.6 55.2 363.2 56.4667 357.6 59C352 61.4 347.333 64.8667 343.6 69.4C339.867 73.9333 337 79.2667 335 85.4C333.133 91.5333 332.2 98.3333 332.2 105.8C332.2 113 333.133 119.667 335 125.8C337 131.933 339.933 137.333 343.8 142C347.667 146.533 352.4 150.067 358 152.6C363.733 155.133 370.333 156.4 377.8 156.4C388.733 156.4 397.933 153.733 405.4 148.4C413 142.933 417.6 135.333 419.2 125.6H447.8C446.467 136 442.933 145.533 437.2 154.2C431.467 162.867 423.6 169.8 413.6 175C403.6 180.2 391.667 182.8 377.8 182.8ZM535.366 179V146.8H530.766V111C530.766 104.733 529.232 100.067 526.166 97C523.099 93.9333 518.366 92.4 511.966 92.4C508.632 92.4 504.632 92.4667 499.966 92.6C495.299 92.7333 490.566 92.9333 485.766 93.2C481.099 93.3333 476.899 93.5333 473.166 93.8V70.2C476.232 69.9333 479.699 69.6667 483.566 69.4C487.432 69.1333 491.366 69 495.366 69C499.499 68.8667 503.366 68.8 506.966 68.8C518.166 68.8 527.432 70.2667 534.766 73.2C542.232 76.1333 547.832 80.7333 551.566 87C555.432 93.2667 557.366 101.467 557.366 111.6V179H535.366ZM500.366 181.8C492.499 181.8 485.566 180.4 479.566 177.6C473.699 174.8 469.099 170.8 465.766 165.6C462.566 160.4 460.966 154.133 460.966 146.8C460.966 138.8 462.899 132.267 466.766 127.2C470.766 122.133 476.299 118.333 483.366 115.8C490.566 113.267 498.966 112 508.566 112H533.766V128.6H508.166C501.766 128.6 496.832 130.2 493.366 133.4C490.032 136.467 488.366 140.467 488.366 145.4C488.366 150.333 490.032 154.333 493.366 157.4C496.832 160.467 501.766 162 508.166 162C512.032 162 515.566 161.333 518.766 160C522.099 158.533 524.832 156.133 526.966 152.8C529.232 149.333 530.499 144.667 530.766 138.8L537.566 146.6C536.899 154.2 535.032 160.6 531.966 165.8C529.032 171 524.899 175 519.566 177.8C514.366 180.467 507.966 181.8 500.366 181.8ZM587.144 179V70.4H609.144V117H607.144C607.144 105.933 608.61 96.7333 611.544 89.4C614.477 81.9333 618.81 76.3333 624.544 72.6C630.41 68.8667 637.677 67 646.344 67H647.544C660.477 67 670.277 71.2 676.944 79.6C683.61 87.8667 686.944 100.267 686.944 116.8V179H659.144V114.4C659.144 107.733 657.21 102.333 653.344 98.2C649.61 94.0667 644.41 92 637.744 92C630.944 92 625.41 94.1333 621.144 98.4C617.01 102.533 614.944 108.133 614.944 115.2V179H587.144ZM769.031 182.8C759.431 182.8 750.965 181.267 743.631 178.2C736.298 175.133 730.098 171 725.031 165.8C719.965 160.467 716.098 154.467 713.431 147.8C710.898 141.133 709.631 134.2 709.631 127V122.8C709.631 115.333 710.965 108.267 713.631 101.6C716.431 94.8 720.365 88.8 725.431 83.6C730.631 78.2667 736.898 74.1333 744.231 71.2C751.565 68.1333 759.831 66.6 769.031 66.6C778.231 66.6 786.498 68.1333 793.831 71.2C801.165 74.1333 807.365 78.2667 812.431 83.6C817.631 88.8 821.565 94.8 824.231 101.6C826.898 108.267 828.231 115.333 828.231 122.8V127C828.231 134.2 826.898 141.133 824.231 147.8C821.698 154.467 817.898 160.467 812.831 165.8C807.765 171 801.565 175.133 794.231 178.2C786.898 181.267 778.498 182.8 769.031 182.8ZM769.031 159C775.831 159 781.565 157.533 786.231 154.6C790.898 151.533 794.431 147.467 796.831 142.4C799.231 137.2 800.431 131.333 800.431 124.8C800.431 118.133 799.165 112.267 796.631 107.2C794.231 102 790.631 97.9333 785.831 95C781.165 91.9333 775.565 90.4 769.031 90.4C762.498 90.4 756.831 91.9333 752.031 95C747.365 97.9333 743.765 102 741.231 107.2C738.698 112.267 737.431 118.133 737.431 124.8C737.431 131.333 738.631 137.2 741.031 142.4C743.565 147.467 747.165 151.533 751.831 154.6C756.498 157.533 762.231 159 769.031 159ZM872.03 179L838.03 70.4H866.63L899.23 179H872.03ZM880.23 179V156.2H909.63V179H880.23ZM891.23 179L919.23 70.4H946.03L916.63 179H891.23ZM1031.46 179V146.8H1026.86V111C1026.86 104.733 1025.33 100.067 1022.26 97C1019.19 93.9333 1014.46 92.4 1008.06 92.4C1004.73 92.4 1000.73 92.4667 996.059 92.6C991.393 92.7333 986.659 92.9333 981.859 93.2C977.193 93.3333 972.993 93.5333 969.259 93.8V70.2C972.326 69.9333 975.793 69.6667 979.659 69.4C983.526 69.1333 987.459 69 991.459 69C995.593 68.8667 999.459 68.8 1003.06 68.8C1014.26 68.8 1023.53 70.2667 1030.86 73.2C1038.33 76.1333 1043.93 80.7333 1047.66 87C1051.53 93.2667 1053.46 101.467 1053.46 111.6V179H1031.46ZM996.459 181.8C988.593 181.8 981.659 180.4 975.659 177.6C969.793 174.8 965.193 170.8 961.859 165.6C958.659 160.4 957.059 154.133 957.059 146.8C957.059 138.8 958.993 132.267 962.859 127.2C966.859 122.133 972.393 118.333 979.459 115.8C986.659 113.267 995.059 112 1004.66 112H1029.86V128.6H1004.26C997.859 128.6 992.926 130.2 989.459 133.4C986.126 136.467 984.459 140.467 984.459 145.4C984.459 150.333 986.126 154.333 989.459 157.4C992.926 160.467 997.859 162 1004.26 162C1008.13 162 1011.66 161.333 1014.86 160C1018.19 158.533 1020.93 156.133 1023.06 152.8C1025.33 149.333 1026.59 144.667 1026.86 138.8L1033.66 146.6C1032.99 154.2 1031.13 160.6 1028.06 165.8C1025.13 171 1020.99 175 1015.66 177.8C1010.46 180.467 1004.06 181.8 996.459 181.8Z" fill="#6F9391"/>
<path d="M1167.4 34.8C1175.27 34.8 1181.33 35.6667 1185.6 37.4C1189.87 39 1193.53 40.7333 1196.6 42.6C1198.2 43.5333 1199.47 44.2667 1200.4 44.8C1201.47 45.2 1202.47 45.4 1203.4 45.4C1204.73 45.4 1205.67 44.6667 1206.2 43.2C1206.87 41.7333 1207.4 39.5333 1207.8 36.6H1212.4C1212.27 39.1333 1212.07 42.2 1211.8 45.8C1211.67 49.2667 1211.53 53.8667 1211.4 59.6C1211.4 65.3333 1211.4 72.8667 1211.4 82.2H1206.8C1206.27 75.2667 1204.67 68.5333 1202 62C1199.33 55.4667 1195.53 50.1333 1190.6 46C1185.8 41.7333 1179.87 39.6 1172.8 39.6C1166.4 39.6 1161.13 41.4 1157 45C1152.87 48.6 1150.8 53.6 1150.8 60C1150.8 65.3333 1152.13 69.9333 1154.8 73.8C1157.47 77.5333 1161.33 81.2 1166.4 84.8C1171.6 88.4 1177.87 92.7333 1185.2 97.8C1191.6 101.933 1197.33 106.067 1202.4 110.2C1207.47 114.333 1211.53 119 1214.6 124.2C1217.67 129.4 1219.2 135.6 1219.2 142.8C1219.2 151.6 1216.87 158.867 1212.2 164.6C1207.67 170.333 1201.67 174.667 1194.2 177.6C1186.73 180.4 1178.53 181.8 1169.6 181.8C1161.33 181.8 1154.73 181 1149.8 179.4C1144.87 177.8 1140.73 176.133 1137.4 174.4C1134.47 172.533 1132.2 171.6 1130.6 171.6C1129.27 171.6 1128.27 172.333 1127.6 173.8C1127.07 175.267 1126.6 177.467 1126.2 180.4H1121.6C1121.87 177.2 1122 173.467 1122 169.2C1122.13 164.933 1122.2 159.4 1122.2 152.6C1122.33 145.667 1122.4 136.933 1122.4 126.4H1127C1127.53 135.2 1129 143.467 1131.4 151.2C1133.93 158.8 1137.73 164.933 1142.8 169.6C1148 174.267 1154.87 176.6 1163.4 176.6C1168.07 176.6 1172.2 175.8 1175.8 174.2C1179.53 172.467 1182.53 169.933 1184.8 166.6C1187.07 163.267 1188.2 159.133 1188.2 154.2C1188.2 148.6 1186.87 143.733 1184.2 139.6C1181.67 135.467 1178.13 131.6 1173.6 128C1169.2 124.4 1164.07 120.733 1158.2 117C1151.93 112.867 1146.07 108.733 1140.6 104.6C1135.13 100.467 1130.73 95.7333 1127.4 90.4C1124.2 85.0667 1122.6 78.7333 1122.6 71.4C1122.6 63 1124.67 56.1333 1128.8 50.8C1133.07 45.3333 1138.6 41.3333 1145.4 38.8C1152.33 36.1333 1159.67 34.8 1167.4 34.8ZM1272.8 42.8V75.6H1296.4V79.6H1272.8V160.4C1272.8 164.4 1273.53 167.267 1275 169C1276.47 170.6 1278.67 171.4 1281.6 171.4C1284 171.4 1286.4 170.533 1288.8 168.8C1291.2 166.933 1293.33 163.8 1295.2 159.4L1298.6 161.2C1296.47 167.2 1293.2 172.133 1288.8 176C1284.53 179.867 1278.67 181.8 1271.2 181.8C1266.8 181.8 1262.93 181.2 1259.6 180C1256.27 178.933 1253.47 177.267 1251.2 175C1248.27 172.067 1246.33 168.467 1245.4 164.2C1244.47 159.8 1244 154.133 1244 147.2V79.6H1227.2V75.6H1244V49.2C1249.6 49.2 1254.73 48.7333 1259.4 47.8C1264.2 46.7333 1268.67 45.0667 1272.8 42.8ZM1330.11 180.4C1324.11 180.4 1319.11 179.267 1315.11 177C1311.11 174.733 1308.18 171.733 1306.31 168C1304.44 164.133 1303.51 159.933 1303.51 155.4C1303.51 149.667 1304.78 145 1307.31 141.4C1309.98 137.8 1313.38 134.867 1317.51 132.6C1321.64 130.333 1325.98 128.467 1330.51 127C1335.18 125.533 1339.58 124.133 1343.71 122.8C1347.98 121.333 1351.38 119.667 1353.91 117.8C1356.58 115.8 1357.91 113.267 1357.91 110.2V94.6C1357.91 91.1333 1357.31 88.0667 1356.11 85.4C1355.04 82.6 1353.31 80.4667 1350.91 79C1348.64 77.5333 1345.64 76.8 1341.91 76.8C1339.24 76.8 1336.58 77.2 1333.91 78C1331.24 78.6667 1329.04 79.8667 1327.31 81.6C1331.04 82.9333 1333.91 85 1335.91 87.8C1338.04 90.4667 1339.11 93.5333 1339.11 97C1339.11 101.533 1337.51 105.133 1334.31 107.8C1331.24 110.467 1327.58 111.8 1323.31 111.8C1318.51 111.8 1314.84 110.333 1312.31 107.4C1309.91 104.333 1308.71 100.667 1308.71 96.4C1308.71 92.5333 1309.64 89.3333 1311.51 86.8C1313.51 84.2667 1316.24 81.8667 1319.71 79.6C1323.44 77.4667 1327.91 75.8 1333.11 74.6C1338.44 73.4 1344.18 72.8 1350.31 72.8C1356.44 72.8 1361.98 73.4667 1366.91 74.8C1371.84 76 1375.98 78.2667 1379.31 81.6C1382.38 84.6667 1384.38 88.4667 1385.31 93C1386.24 97.4 1386.71 103 1386.71 109.8V164.2C1386.71 167.533 1387.04 169.867 1387.71 171.2C1388.38 172.4 1389.51 173 1391.11 173C1392.31 173 1393.44 172.667 1394.51 172C1395.71 171.333 1396.98 170.533 1398.31 169.6L1400.31 173C1397.51 175.4 1394.24 177.267 1390.51 178.6C1386.91 179.8 1382.84 180.4 1378.31 180.4C1373.38 180.4 1369.44 179.733 1366.51 178.4C1363.58 176.933 1361.44 175 1360.11 172.6C1358.91 170.2 1358.31 167.4 1358.31 164.2C1355.11 169.267 1351.24 173.267 1346.71 176.2C1342.18 179 1336.64 180.4 1330.11 180.4ZM1344.31 167.6C1346.98 167.6 1349.38 167 1351.51 165.8C1353.78 164.467 1355.91 162.333 1357.91 159.4V118.4C1356.71 120.4 1355.04 122.2 1352.91 123.8C1350.78 125.4 1348.51 127.067 1346.11 128.8C1343.71 130.4 1341.38 132.2 1339.11 134.2C1336.98 136.2 1335.24 138.667 1333.91 141.6C1332.58 144.533 1331.91 148.067 1331.91 152.2C1331.91 157.4 1333.04 161.267 1335.31 163.8C1337.58 166.333 1340.58 167.6 1344.31 167.6ZM1502.07 75.6V79.6C1499.54 80.2667 1497.14 81.8667 1494.87 84.4C1492.6 86.8 1490.4 90.9333 1488.27 96.8L1460.07 176L1452.67 190L1409.07 91C1406.8 85.8 1404.54 82.6667 1402.27 81.6C1400.14 80.4 1398.27 79.8 1396.67 79.8V75.6C1401.07 76 1405.6 76.3333 1410.27 76.6C1415.07 76.7333 1419.67 76.8 1424.07 76.8C1429.54 76.8 1434.54 76.6667 1439.07 76.4C1443.6 76.1333 1447.87 75.8667 1451.87 75.6V79.8C1449.2 79.8 1446.67 80 1444.27 80.4C1442 80.6667 1440.4 81.6 1439.47 83.2C1438.67 84.6667 1439.07 87.2667 1440.67 91L1465.87 151.8L1464.07 153L1478.87 111.6C1481.4 104.4 1482.47 98.5333 1482.07 94C1481.67 89.3333 1480.2 85.8667 1477.67 83.6C1475.14 81.2 1471.67 79.8667 1467.27 79.6V75.6C1469.4 75.7333 1471.6 75.8667 1473.87 76C1476.14 76 1478.4 76.0667 1480.67 76.2C1482.94 76.2 1484.94 76.2 1486.67 76.2C1489.34 76.2 1492.14 76.1333 1495.07 76C1498 75.8667 1500.34 75.7333 1502.07 75.6ZM1460.07 176L1452.47 197.4C1451.14 200.733 1449.74 203.533 1448.27 205.8C1446.94 208.2 1445.4 210.133 1443.67 211.6C1441.8 213.2 1439.4 214.4 1436.47 215.2C1433.54 216.133 1430.14 216.6 1426.27 216.6C1423.07 216.6 1419.74 216.067 1416.27 215C1412.94 213.933 1410.14 212.2 1407.87 209.8C1405.6 207.4 1404.47 204.333 1404.47 200.6C1404.47 196.467 1405.94 193.133 1408.87 190.6C1411.8 188.2 1415.67 187 1420.47 187C1424.87 187 1428.47 188.067 1431.27 190.2C1434.07 192.333 1435.47 195.467 1435.47 199.6C1435.47 202.267 1434.6 204.8 1432.87 207.2C1431.27 209.6 1428.8 211.4 1425.47 212.6C1426.14 212.733 1426.94 212.8 1427.87 212.8C1428.8 212.8 1429.54 212.8 1430.07 212.8C1434.07 212.8 1437.6 211.533 1440.67 209C1443.74 206.467 1446.27 202.467 1448.27 197L1455.27 176.4L1460.07 176ZM1545.24 72.8C1550.84 72.8 1555.7 73.5333 1559.84 75C1564.1 76.3333 1567.17 77.6667 1569.04 79C1573.57 82.0667 1576.37 80.0667 1577.44 73H1581.64C1581.37 76.7333 1581.17 81.3333 1581.04 86.8C1580.9 92.1333 1580.84 99.2667 1580.84 108.2H1576.64C1575.97 103.267 1574.7 98.4 1572.84 93.6C1570.97 88.8 1568.24 84.8667 1564.64 81.8C1561.17 78.7333 1556.64 77.2 1551.04 77.2C1547.17 77.2 1543.9 78.3333 1541.24 80.6C1538.57 82.7333 1537.24 85.8667 1537.24 90C1537.24 94 1538.44 97.5333 1540.84 100.6C1543.24 103.533 1546.3 106.4 1550.04 109.2C1553.9 111.867 1557.9 114.733 1562.04 117.8C1566.44 121.133 1570.44 124.467 1574.04 127.8C1577.64 131 1580.5 134.533 1582.64 138.4C1584.77 142.267 1585.84 146.867 1585.84 152.2C1585.84 158.2 1584.1 163.467 1580.64 168C1577.17 172.4 1572.57 175.8 1566.84 178.2C1561.24 180.6 1554.97 181.8 1548.04 181.8C1544.04 181.8 1540.44 181.4 1537.24 180.6C1534.17 179.8 1531.5 178.8 1529.24 177.6C1527.5 176.8 1525.84 176.067 1524.24 175.4C1522.77 174.6 1521.37 173.933 1520.04 173.4C1518.7 173 1517.5 173.467 1516.44 174.8C1515.5 176.133 1514.77 178 1514.24 180.4H1510.04C1510.3 176.133 1510.5 170.933 1510.64 164.8C1510.77 158.667 1510.84 150.533 1510.84 140.4H1515.04C1515.84 147.6 1517.3 154 1519.44 159.6C1521.57 165.067 1524.44 169.4 1528.04 172.6C1531.77 175.667 1536.44 177.2 1542.04 177.2C1544.3 177.2 1546.5 176.733 1548.64 175.8C1550.77 174.867 1552.5 173.333 1553.84 171.2C1555.3 169.067 1556.04 166.333 1556.04 163C1556.04 157.133 1554.1 152.267 1550.24 148.4C1546.5 144.533 1541.7 140.333 1535.84 135.8C1531.57 132.333 1527.5 128.933 1523.64 125.6C1519.9 122.133 1516.84 118.4 1514.44 114.4C1512.04 110.267 1510.84 105.6 1510.84 100.4C1510.84 94.4 1512.44 89.3333 1515.64 85.2C1518.84 81.0667 1523.04 78 1528.24 76C1533.57 73.8667 1539.24 72.8 1545.24 72.8Z" fill="#F3AE42"/>
<path d="M124.418 143.606V72.9994H122.23C113.822 77.141 111.18 82.39 109.1 95.4654V143.606C106.057 148.906 103.244 150.647 94.8758 150.025L93.7818 148.956C93.7818 148.956 92.6876 106.163 93.7818 93.3259C94.8758 80.4883 106.471 65.447 122.23 63.3711C118.717 56.4578 116.904 52.4326 105.817 52.6732H100.347L95.97 53.7431C88.0179 56.684 81.7461 64.4412 80.6519 75.1392C79.5579 85.8371 80.6519 166.072 80.6519 166.072V169.282C76.9222 177.132 73.9052 178.401 66.428 178.91L65.334 177.84V75.1392C65.9328 69.9924 66.6186 67.1747 68.6164 62.3015C74.759 49.8242 80.2471 44.1148 97.0643 40.9054C113.881 37.6961 122.946 45.8634 128.795 56.8336L129.889 59.0922L130.983 56.8336C136.831 45.8634 145.896 37.6961 162.713 40.9054C179.53 44.1148 185.018 49.8242 191.16 62.3015C193.158 67.1747 193.844 69.9924 194.443 75.1392V177.84L193.349 178.91C185.872 178.401 182.855 177.132 179.125 169.282V166.072C179.125 166.072 180.219 85.8371 179.125 75.1392C178.031 64.4412 171.759 56.684 163.807 53.7431L159.431 52.6732H153.96C142.873 52.4326 141.06 56.4578 137.548 63.3711C153.306 65.447 164.901 80.4883 165.995 93.3259C167.089 106.163 165.995 148.956 165.995 148.956L164.901 150.025C156.533 150.647 153.72 148.906 150.678 143.606V95.4654C148.597 82.39 145.956 77.141 137.548 72.9994H135.359V143.606C139.698 155.455 147.76 161.607 165.995 167.142V178.91C153.96 179.98 140.076 173.682 129.889 155.374C119.701 173.682 105.817 179.98 93.7818 178.91V167.142C112.016 161.607 120.079 155.455 124.418 143.606Z" fill="#F3AE42"/>
<path fill-rule="evenodd" clip-rule="evenodd" d="M204.832 22.7177C243.126 53.6226 242.036 170.345 204.832 198.165C167.629 225.985 92.134 228.119 53.8398 198.165C15.5453 168.21 17.7321 49.4622 53.8398 22.7177C89.9474 -4.02693 166.538 -8.18722 204.832 22.7177ZM195.856 191.016C229.21 165.637 230.188 59.154 195.856 30.96C161.524 2.76597 92.8583 6.56134 60.4867 30.96C28.1152 55.3584 26.1548 163.69 60.4867 191.016C94.8187 218.343 162.502 216.396 195.856 191.016Z" fill="#F3AE42"/>
<path d="M138.674 26.9091C138.674 31.863 134.567 35.8788 129.5 35.8788C124.433 35.8788 120.326 31.863 120.326 26.9091C120.326 21.9553 124.433 17.9395 129.5 17.9395C134.567 17.9395 138.674 21.9553 138.674 26.9091Z" fill="#F3AE42"/>
<path d="M138.674 190.606C138.674 195.56 134.567 199.576 129.5 199.576C124.433 199.576 120.326 195.56 120.326 190.606C120.326 185.652 124.433 181.636 129.5 181.636C134.567 181.636 138.674 185.652 138.674 190.606Z" fill="#F3AE42"/>
<path d="M130.873 59.548L131.958 57.308C134.832 51.9226 138.441 47.3328 143.298 44.4639C148.132 41.6086 154.32 40.389 162.504 41.9508C170.823 43.5384 176.203 45.7199 180.25 48.9528C184.297 52.185 187.118 56.5503 190.163 62.7309C192.104 67.4707 192.768 70.1912 193.353 75.1997V177.399L192.931 177.812C189.488 177.553 187.24 177.103 185.423 175.955C183.565 174.78 182.01 172.778 180.214 169.045V166.072L180.215 166.028L180.217 165.856L180.226 165.182C180.23 164.914 180.234 164.59 180.239 164.211C180.245 163.756 180.251 163.222 180.259 162.617C180.287 160.402 180.325 157.225 180.368 153.38C180.453 145.69 180.556 135.324 180.625 124.624C180.761 103.272 180.763 80.455 180.209 75.0331C179.078 63.9799 172.575 55.8469 164.193 52.7467L164.133 52.7248L164.071 52.7097L159.695 51.6399L159.565 51.608H159.431H153.972C148.313 51.4867 144.783 52.4469 142.219 54.5182C139.848 56.4339 138.436 59.219 136.828 62.3925C136.743 62.5598 136.658 62.728 136.572 62.8973L135.896 64.2284L137.402 64.4268C144.967 65.4232 151.579 69.5398 156.449 75.012C161.324 80.4902 164.384 87.252 164.91 93.4142C165.452 99.7722 165.453 113.623 165.316 125.943C165.248 132.09 165.145 137.837 165.06 142.047C165.017 144.152 164.979 145.873 164.951 147.067C164.937 147.665 164.926 148.13 164.918 148.446L164.917 148.503L164.418 148.991C160.522 149.25 158.072 148.942 156.272 148.08C154.497 147.23 153.195 145.765 151.767 143.325V95.4654V95.3831L151.754 95.3017C150.711 88.7462 149.509 84.0046 147.437 80.3644C145.335 76.6705 142.386 74.1901 138.038 72.0482L137.807 71.9343H137.548H135.359H134.27V72.9994V143.606V143.791L134.334 143.965C136.563 150.052 139.774 154.728 144.794 158.58C149.644 162.3 156.129 165.209 164.906 167.924V177.92C153.619 178.521 140.588 172.373 130.846 154.865L129.889 153.145L128.932 154.865C119.189 172.373 106.158 178.521 94.8712 177.92V167.924C103.648 165.209 110.133 162.301 114.983 158.58C120.004 154.728 123.215 150.052 125.444 143.965L125.507 143.791V143.606V72.9994V71.9343H124.418H122.23H121.971L121.74 72.0482C117.391 74.1901 114.442 76.6705 112.34 80.3644C110.268 84.0046 109.066 88.7462 108.023 95.3017L108.01 95.3831V95.4654V143.325C106.582 145.765 105.281 147.23 103.506 148.08C101.705 148.942 99.2554 149.25 95.359 148.991L94.8602 148.503L94.8588 148.446C94.851 148.13 94.8398 147.665 94.826 147.067C94.7983 145.873 94.7598 144.152 94.7171 142.047C94.6315 137.837 94.529 132.09 94.4607 125.943C94.3238 113.623 94.3254 99.7722 94.8673 93.4142C95.3925 87.252 98.4529 80.4905 103.328 75.012C108.198 69.5398 114.81 65.4232 122.375 64.4268L123.881 64.2284L123.205 62.8973C123.119 62.728 123.034 62.5598 122.949 62.3925C121.341 59.219 119.929 56.4339 117.558 54.5182C114.994 52.4469 111.465 51.4867 105.805 51.608H100.347H100.212L100.082 51.6399L95.7058 52.7097L95.6441 52.7248L95.5845 52.7467C87.2023 55.8469 80.6984 63.9799 79.568 75.0331C79.0134 80.455 79.0157 103.272 79.1522 124.624C79.2208 135.324 79.3233 145.69 79.4088 153.38C79.4515 157.225 79.49 160.402 79.5178 162.617C79.5317 163.724 79.543 164.592 79.5506 165.182L79.5595 165.856L79.5618 166.028L79.5625 166.072V166.079V169.045C77.7671 172.778 76.2117 174.78 74.3538 175.955C72.5366 177.103 70.2888 177.553 66.8458 177.812L66.4234 177.399V75.1997C67.0087 70.1912 67.6729 67.4707 69.6138 62.7309C72.6591 56.5503 75.4801 52.185 79.5267 48.9528C83.5745 45.7199 88.9545 43.5384 97.2729 41.9508C105.457 40.389 111.645 41.6086 116.479 44.4639C121.337 47.3328 124.945 51.9224 127.819 57.3078L128.904 59.548L129.889 61.5805L130.873 59.548ZM196.525 191.857C205.127 185.312 211.528 173.645 215.799 159.568C220.08 145.461 222.266 128.786 222.327 112.047C222.389 95.3082 220.326 78.4588 216.077 64.0001C211.836 49.5665 205.379 37.3895 196.556 30.1444C179.117 15.8227 153.071 9.69559 127.415 10.1728C101.758 10.6501 76.2475 17.7361 59.8216 30.1164C51.4559 36.4217 45.1791 48.0293 40.9566 62.1196C36.7232 76.2464 34.5066 93.0303 34.3836 109.883C34.2604 126.735 36.2305 143.704 40.402 158.199C44.5653 172.666 50.9617 184.808 59.7989 191.843C77.2266 205.714 103.011 212.091 128.549 211.846C154.087 211.601 179.604 204.733 196.525 191.857ZM204.139 23.5392C213.47 31.0703 220.5 43.9246 225.174 59.5561C229.841 75.1631 232.122 93.4156 232.054 111.594C231.987 129.773 229.569 147.832 224.87 163.053C220.161 178.303 213.206 190.562 204.17 197.319C185.812 211.046 157.892 218.499 129.734 218.765C101.576 219.03 73.4063 212.106 54.5202 197.333C45.2032 190.045 38.2436 177.255 33.6539 161.582C29.0722 145.936 26.8922 127.553 27.0283 109.245C27.1643 90.9377 29.6162 72.7534 34.2656 57.5063C38.9258 42.2237 45.7456 30.0491 54.4975 23.5667C72.3119 10.3719 100.237 2.68144 128.536 2.16413C156.837 1.64679 185.265 8.30712 204.139 23.5392ZM137.585 26.9091C137.585 31.2746 133.965 34.8136 129.5 34.8136C125.035 34.8136 121.416 31.2746 121.416 26.9091C121.416 22.5435 125.035 19.0046 129.5 19.0046C133.965 19.0046 137.585 22.5435 137.585 26.9091ZM137.585 190.606C137.585 194.972 133.965 198.511 129.5 198.511C125.035 198.511 121.416 194.972 121.416 190.606C121.416 186.241 125.035 182.702 129.5 182.702C133.965 182.702 137.585 186.241 137.585 190.606Z" stroke="#F3AE42" stroke-width="0.95"/>
</svg>
